<svg fill="none" height="512" viewBox="0 0 24 24" width="512" xmlns="http://www.w3.org/2000/svg"><g fill="rgb(0,0,0)"><path d="m21.3463 7.33465c.3674.19125.5102.64414.319 1.01156-.3726.71572-.9251 1.35729-1.6013 1.91149-1.8843 1.5444-4.8252 2.4922-8.064 2.4922-3.23873 0-6.17966-.9478-8.06401-2.4922-.67623-.5542-1.22867-1.19578-1.60124-1.91148-.19126-.36741-.04846-.82031.31895-1.01157s.82031-.04846 1.01157.31895c.26215.5036.67144.99312 1.22152 1.44393 1.55388 1.27357 4.13096 2.15237 7.11321 2.15237 2.9823 0 5.5593-.8788 7.1132-2.15236.5501-.45082.9594-.94035 1.2215-1.44393.1913-.36741.6442-.51022 1.0116-.31896z"/><path d="m14.2948 11.2755c.4001-.1072.8113.1302.9185.5303l1.0353 3.8637c.1072.4001-.1303.8114-.5304.9186s-.8113-.1303-.9185-.5304l-1.0353-3.8637c-.1072-.4001.1302-.8113.5304-.9185z"/><path d="m18.1464 10.1464c.2929-.29291.7678-.29292 1.0607 0l2.8284 2.8284c.2929.2929.2929.7677 0 1.0606-.2928.2929-.7677.2929-1.0606 0l-2.8285-2.8284c-.2929-.2928-.2929-.7677 0-1.0606z"/><path d="m5.85874 10.1464c.29289.2929.29289.7677 0 1.0606l-2.82841 2.8284c-.29289.2929-.76777.2929-1.06066 0s-.29289-.7677 0-1.0606l2.82841-2.8284c.29289-.29291.76777-.29291 1.06066 0z"/><path d="m9.69323 11.2755c.40007.1072.63757.5184.53037.9185l-1.03535 3.8637c-.1072.4001-.51846.6376-.91856.5304-.4001-.1073-.63753-.5185-.53032-.9186l1.0353-3.8637c.10721-.4001.51846-.6375.91856-.5303z"/></g></svg>