<svg fill="none" height="512" viewBox="0 0 24 24" width="512" xmlns="http://www.w3.org/2000/svg"><g fill="rgb(0,0,0)"><path d="m4.45015 8.42257c1.85794-1.54003 4.52717-3.17257 7.54965-3.17257 3.0226 0 5.6918 1.63254 7.5497 3.17257.9396.77884 1.6982 1.55595 2.2221 2.13833.2624.2917.467.5358.6073.7085.0702.0865.1243.1551.1616.2031.0186.024.033.0428.0432.0561l.0119.0157.0035.0047.0011.0015s.0007.001-.6004.4495c.6011.4485.6008.4489.6008.4489l-.0015.0021-.0035.0047-.0119.0157c-.0102.0133-.0246.0321-.0432.0561-.0373.048-.0914.1166-.1616.2031-.1403.1727-.3449.4168-.6073.7085-.5239.5824-1.2825 1.3595-2.2221 2.1383-1.8579 1.5401-4.5271 3.1726-7.5497 3.1726-3.02248 0-5.69171-1.6325-7.54965-3.1726-.9396-.7788-1.69813-1.5559-2.22204-2.1383-.26239-.2917-.46707-.5358-.60735-.7085-.07016-.0865-.1243-.1551-.16156-.2031-.01863-.024-.03306-.0428-.04317-.0561l-.01191-.0157-.00351-.0047-.00114-.0015s-.00072-.001.60037-.4495c-.60109-.4485-.60078-.4489-.60078-.4489l.00155-.0021.00351-.0047.01191-.0157c.01011-.0133.02454-.0321.04317-.0561.03726-.048.0914-.1166.16156-.2031.14028-.1727.34496-.4168.60735-.7085.52391-.58238 1.28244-1.35949 2.22204-2.13833zm-2.45031 3.57743-.60078-.4489c-.19854.266-.19885.6314-.00031.8974zm.9634 0c.10539.125.23257.272.38003.4359.48815.5426 1.19409 1.2655 2.06413 1.9867 1.76135 1.4599 4.09212 2.8274 6.5924 2.8274 2.5004 0 4.8311-1.3675 6.5925-2.8274.87-.7212 1.576-1.4441 2.0641-1.9867.1475-.1639.2747-.3109.38-.4359-.1053-.125-.2325-.272-.38-.4359-.4881-.5426-1.1941-1.2655-2.0641-1.98667-1.7614-1.45997-4.0921-2.82743-6.5925-2.82743-2.50028 0-4.83105 1.36746-6.5924 2.82743-.87004.72117-1.57598 1.44407-2.06413 1.98667-.14746.1639-.27464.3109-.38003.4359zm19.03656 0 .6008.4489c.1986-.266.1989-.6314.0003-.8974z"/><path d="m8.74985 12c0-1.7949 1.45505-3.25 3.24995-3.25 1.795 0 3.25 1.4551 3.25 3.25s-1.455 3.25-3.25 3.25c-1.7949 0-3.24995-1.4551-3.24995-3.25zm3.24995-1.75c-.9664 0-1.75.7835-1.75 1.75s.7836 1.75 1.75 1.75c.9665 0 1.75-.7835 1.75-1.75s-.7835-1.75-1.75-1.75z"/></g></svg>