<svg width="21" height="21" viewBox="0 0 21 21" fill="none" xmlns="http://www.w3.org/2000/svg">
<path d="M19.25 10.5H14L12.25 13.125H8.75L7 10.5H1.75M19.25 10.5V15.75C19.25 16.2141 19.0656 16.6592 18.7374 16.9874C18.4092 17.3156 17.9641 17.5 17.5 17.5H3.5C3.03587 17.5 2.59075 17.3156 2.26256 16.9874C1.93437 16.6592 1.75 16.2141 1.75 15.75V10.5M19.25 10.5L16.2313 4.47125C16.0864 4.17969 15.863 3.93432 15.5863 3.76274C15.3096 3.59116 14.9906 3.50017 14.665 3.5H6.335C6.00943 3.50017 5.69036 3.59116 5.41366 3.76274C5.13697 3.93432 4.91363 4.17969 4.76875 4.47125L1.75 10.5" stroke="#1E1E1E" stroke-width="1.6" stroke-linecap="round" stroke-linejoin="round"/>
</svg>
