<svg width="23" height="23" viewBox="0 0 23 23" fill="none" xmlns="http://www.w3.org/2000/svg">
<path d="M20.125 9.58331C20.125 16.2916 11.5 22.0416 11.5 22.0416C11.5 22.0416 2.875 16.2916 2.875 9.58331C2.875 7.29582 3.7837 5.10202 5.4012 3.48452C7.0187 1.86702 9.21251 0.958313 11.5 0.958313C13.7875 0.958313 15.9813 1.86702 17.5988 3.48452C19.2163 5.10202 20.125 7.29582 20.125 9.58331Z" stroke="white" stroke-width="1.6" stroke-linecap="round" stroke-linejoin="round"/>
<path d="M11.5 12.4583C13.0878 12.4583 14.375 11.1711 14.375 9.58331C14.375 7.99549 13.0878 6.70831 11.5 6.70831C9.91218 6.70831 8.625 7.99549 8.625 9.58331C8.625 11.1711 9.91218 12.4583 11.5 12.4583Z" stroke="white" stroke-width="1.6" stroke-linecap="round" stroke-linejoin="round"/>
</svg>
