<svg width="24" height="22" viewBox="0 0 24 22" fill="none" xmlns="http://www.w3.org/2000/svg">
<path d="M18 20C17.1667 20 16.4583 19.7083 15.875 19.125C15.2917 18.5417 15 17.8333 15 17C15 16.8833 15.0083 16.7625 15.025 16.6375C15.0417 16.5125 15.0667 16.4 15.1 16.3L8.05 12.2C7.76667 12.45 7.45 12.6458 7.1 12.7875C6.75 12.9292 6.38333 13 6 13C5.16667 13 4.45833 12.7083 3.875 12.125C3.29167 11.5417 3 10.8333 3 10C3 9.16667 3.29167 8.45833 3.875 7.875C4.45833 7.29167 5.16667 7 6 7C6.38333 7 6.75 7.07083 7.1 7.2125C7.45 7.35417 7.76667 7.55 8.05 7.8L15.1 3.7C15.0667 3.6 15.0417 3.4875 15.025 3.3625C15.0083 3.2375 15 3.11667 15 3C15 2.16667 15.2917 1.45833 15.875 0.875C16.4583 0.291667 17.1667 0 18 0C18.8333 0 19.5417 0.291667 20.125 0.875C20.7083 1.45833 21 2.16667 21 3C21 3.83333 20.7083 4.54167 20.125 5.125C19.5417 5.70833 18.8333 6 18 6C17.6167 6 17.25 5.92917 16.9 5.7875C16.55 5.64583 16.2333 5.45 15.95 5.2L8.9 9.3C8.93333 9.4 8.95833 9.5125 8.975 9.6375C8.99167 9.7625 9 9.88333 9 10C9 10.1167 8.99167 10.2375 8.975 10.3625C8.95833 10.4875 8.93333 10.6 8.9 10.7L15.95 14.8C16.2333 14.55 16.55 14.3542 16.9 14.2125C17.25 14.0708 17.6167 14 18 14C18.8333 14 19.5417 14.2917 20.125 14.875C20.7083 15.4583 21 16.1667 21 17C21 17.8333 20.7083 18.5417 20.125 19.125C19.5417 19.7083 18.8333 20 18 20ZM18 4C18.2833 4 18.5208 3.90417 18.7125 3.7125C18.9042 3.52083 19 3.28333 19 3C19 2.71667 18.9042 2.47917 18.7125 2.2875C18.5208 2.09583 18.2833 2 18 2C17.7167 2 17.4792 2.09583 17.2875 2.2875C17.0958 2.47917 17 2.71667 17 3C17 3.28333 17.0958 3.52083 17.2875 3.7125C17.4792 3.90417 17.7167 4 18 4ZM6 11C6.28333 11 6.52083 10.9042 6.7125 10.7125C6.90417 10.5208 7 10.2833 7 10C7 9.71667 6.90417 9.47917 6.7125 9.2875C6.52083 9.09583 6.28333 9 6 9C5.71667 9 5.47917 9.09583 5.2875 9.2875C5.09583 9.47917 5 9.71667 5 10C5 10.2833 5.09583 10.5208 5.2875 10.7125C5.47917 10.9042 5.71667 11 6 11ZM18 18C18.2833 18 18.5208 17.9042 18.7125 17.7125C18.9042 17.5208 19 17.2833 19 17C19 16.7167 18.9042 16.4792 18.7125 16.2875C18.5208 16.0958 18.2833 16 18 16C17.7167 16 17.4792 16.0958 17.2875 16.2875C17.0958 16.4792 17 16.7167 17 17C17 17.2833 17.0958 17.5208 17.2875 17.7125C17.4792 17.9042 17.7167 18 18 18Z" fill="#1D1B20"/>
</svg>
