<svg width="27" height="26" viewBox="0 0 27 26" fill="none" xmlns="http://www.w3.org/2000/svg">
<path d="M16.3125 22.75V17.25C16.3125 16.6977 15.8648 16.25 15.3125 16.25H11.6875C11.1352 16.25 10.6875 16.6977 10.6875 17.25V22.75" stroke="#003B73" stroke-width="2" stroke-linecap="round" stroke-linejoin="round"/>
<path d="M5.625 11.9167V18.75C5.625 20.6356 5.625 21.5784 6.21079 22.1642C6.79657 22.75 7.73938 22.75 9.625 22.75H17.375C19.2606 22.75 20.2034 22.75 20.7892 22.1642C21.375 21.5784 21.375 20.6356 21.375 18.75V11.9167" stroke="#003B73" stroke-width="2"/>
<path d="M5.23624 4.74743C5.42306 4.02784 5.51647 3.66805 5.78669 3.45902C6.05691 3.25 6.42863 3.25 7.17207 3.25H19.8279C20.5714 3.25 20.9431 3.25 21.2133 3.45902C21.4835 3.66805 21.5769 4.02784 21.7638 4.74743L23.1338 10.0248C23.2846 10.6054 23.3599 10.8956 23.3096 11.1281C23.2458 11.4232 23.0521 11.6736 22.7825 11.8096C22.5701 11.9167 22.2702 11.9167 21.6704 11.9167H21.5806C20.8502 11.9167 20.4849 11.9167 20.1778 11.8146C19.6926 11.6534 19.2876 11.3124 19.046 10.8619C18.8931 10.5766 18.8308 10.2168 18.7062 9.49704V9.49704C18.6723 9.30117 18.6554 9.20323 18.6312 9.18039C18.5927 9.14392 18.5323 9.14392 18.4938 9.18039C18.4696 9.20323 18.4527 9.30117 18.4188 9.49704L18.3358 9.97676C18.2898 10.242 18.2669 10.3747 18.233 10.4884C18.005 11.2526 17.3448 11.8083 16.5529 11.9026C16.4351 11.9167 16.3005 11.9167 16.0312 11.9167V11.9167C15.762 11.9167 15.6274 11.9167 15.5096 11.9026C14.7177 11.8083 14.0575 11.2526 13.8295 10.4884C13.7956 10.3747 13.7727 10.242 13.7267 9.97676L13.6437 9.49704C13.6098 9.30117 13.5929 9.20323 13.5687 9.18039C13.5302 9.14392 13.4698 9.14392 13.4313 9.18039C13.4071 9.20323 13.3902 9.30117 13.3563 9.49704L13.2733 9.97676C13.2273 10.242 13.2044 10.3747 13.1705 10.4884C12.9425 11.2526 12.2823 11.8083 11.4904 11.9026C11.3726 11.9167 11.238 11.9167 10.9688 11.9167V11.9167C10.6995 11.9167 10.5649 11.9167 10.4471 11.9026C9.6552 11.8083 8.995 11.2526 8.76703 10.4884C8.73312 10.3747 8.71016 10.242 8.66425 9.97676L8.58122 9.49704C8.54732 9.30117 8.53037 9.20323 8.50623 9.18039C8.46767 9.14392 8.40733 9.14392 8.36877 9.18039C8.34463 9.20323 8.32768 9.30117 8.29378 9.49704V9.49704C8.16921 10.2168 8.10693 10.5766 7.95398 10.8619C7.71235 11.3124 7.30735 11.6534 6.82218 11.8146C6.51506 11.9167 6.14984 11.9167 5.4194 11.9167H5.32956C4.72978 11.9167 4.42989 11.9167 4.21749 11.8096C3.94793 11.6736 3.75422 11.4232 3.69038 11.1281C3.64008 10.8956 3.71544 10.6054 3.86615 10.0248L5.23624 4.74743Z" stroke="#003B73" stroke-width="2"/>
</svg>
